<svg id="Capa_1" enable-background="new 0 0 512 512" height="512" viewBox="0 0 512 512" width="512" xmlns="http://www.w3.org/2000/svg"><g><g><path clip-rule="evenodd" d="m34.435 81.371 199.724 20.778-100.485-94.649h-81.579c-9.723 0-17.659 7.937-17.659 17.66v56.211z" fill="#e5384f" fill-rule="evenodd"/></g><g><path clip-rule="evenodd" d="m176.363 81.371h257.521v-56.211c0-9.723-7.937-17.66-17.631-17.66h-282.579z" fill="#365e7d" fill-rule="evenodd"/></g><g><path clip-rule="evenodd" d="m34.435 81.371v226.489c0 9.723 7.937 17.66 17.659 17.66h25.993l355.796-139.068v-105.081h-257.52z" fill="#a1d4ff" fill-rule="evenodd"/></g><g><path clip-rule="evenodd" d="m78.088 260.351 80.927 18.879 61.028-18.879 2.183-35.462-44.9-38.438h-81.579c-9.723 0-17.659 7.937-17.659 17.66z" fill="#e5384f" fill-rule="evenodd"/></g><g><path clip-rule="evenodd" d="m220.043 260.351 78.716 25.285 178.805-25.285v-56.24c0-9.723-7.965-17.66-17.659-17.66h-26.021-256.558z" fill="#365e7d" fill-rule="evenodd"/></g><g><path clip-rule="evenodd" d="m78.088 486.84c0 9.695 7.937 17.66 17.659 17.66h364.158c9.694 0 17.659-7.965 17.659-17.66v-226.489h-257.521-141.955v65.169z" fill="#f9f7f8" fill-rule="evenodd"/></g><g><path clip-rule="evenodd" d="m367.13 25.16v56.211h66.754v-56.211c0-9.723-7.937-17.66-17.631-17.66h-66.783c9.723 0 17.66 7.937 17.66 17.66z" fill="#2b4d66" fill-rule="evenodd"/></g><g><path clip-rule="evenodd" d="m367.13 81.371v71.093 33.988h25.993 40.761v-105.081z" fill="#80b4fb" fill-rule="evenodd"/></g><g><path clip-rule="evenodd" d="m433.884 186.452h-40.761c6.888 0 12.897 3.997 15.789 9.751 1.191 2.381 1.871 5.074 1.871 7.909v56.24h66.783v-56.24c0-9.723-7.965-17.66-17.659-17.66z" fill="#2b4d66" fill-rule="evenodd"/></g><g><path clip-rule="evenodd" d="m477.565 260.351h-66.783v9.439 76.479l20.862 20.835c10.29 10.318 10.29 27.099 0 37.417l-20.862 20.835v61.484c0 9.695-7.937 17.66-17.659 17.66h66.783c9.694 0 17.659-7.965 17.659-17.66z" fill="#dddaec" fill-rule="evenodd"/></g><g><path clip-rule="evenodd" d="m124.008 404.522 54.707 54.709c6.633 6.633 17.461 6.633 24.122 0 6.633-6.633 6.633-17.461 0-24.123l-49.322-49.295 49.322-49.323c6.633-6.633 6.633-17.461 0-24.095-6.661-6.633-17.489-6.633-24.122 0l-54.707 54.709c-10.318 10.318-10.318 27.1 0 37.418z" fill="#a7e9a6" fill-rule="evenodd"/></g><g><path clip-rule="evenodd" d="m283.056 317.328-42.745 126.029c-3.005 8.872 1.786 18.595 10.686 21.6 8.872 3.005 18.595-1.786 21.599-10.658l42.745-126.029c3.005-8.901-1.786-18.595-10.686-21.628-8.872-3.006-18.594 1.785-21.599 10.686z" fill="#a7e9a6" fill-rule="evenodd"/></g><g><path clip-rule="evenodd" d="m352.815 336.49 49.322 49.323-49.322 49.295c-6.633 6.661-6.633 17.49 0 24.123s17.461 6.633 24.122 0l54.707-54.709c10.29-10.318 10.29-27.099 0-37.417l-54.707-54.709c-6.661-6.633-17.489-6.633-24.122 0s-6.633 17.461 0 24.094z" fill="#a7e9a6" fill-rule="evenodd"/></g><g><path d="m387.29 51.965c1.43 0 2.875-.408 4.153-1.261l.085-.057c3.446-2.297 4.378-6.954 2.08-10.4-2.297-3.446-6.953-4.377-10.4-2.08l-.085.057c-3.446 2.297-4.378 6.954-2.08 10.4 1.445 2.168 3.823 3.341 6.247 3.341z"/><path d="m343.504 51.921c1.936 0 3.874-.739 5.346-2.211 2.929-2.929 2.929-7.678 0-10.606-2.93-2.929-7.678-2.929-10.607 0l-.057.057c-2.929 2.929-2.9 7.649.028 10.578 1.458 1.457 3.373 2.182 5.29 2.182z"/><path d="m305.181 51.921c1.936 0 3.874-.739 5.346-2.211 2.929-2.929 2.929-7.678 0-10.606-2.93-2.929-7.678-2.929-10.607 0l-.057.057c-2.929 2.929-2.9 7.649.028 10.578 1.458 1.457 3.373 2.182 5.29 2.182z"/><path d="m143.396 125.948h102.356c4.143 0 7.5-3.358 7.5-7.5s-3.357-7.5-7.5-7.5h-102.356c-4.143 0-7.5 3.358-7.5 7.5s3.358 7.5 7.5 7.5z"/><path d="m108.944 118.448c0-4.142-3.357-7.5-7.5-7.5h-21.485c-4.143 0-7.5 3.358-7.5 7.5s3.357 7.5 7.5 7.5h21.485c4.143 0 7.5-3.358 7.5-7.5z"/><path d="m138.209 159.964h158.34c4.143 0 7.5-3.358 7.5-7.5s-3.357-7.5-7.5-7.5h-158.34c-4.143 0-7.5 3.358-7.5 7.5s3.357 7.5 7.5 7.5z"/><path d="m336.828 159.964h51.532c4.143 0 7.5-3.358 7.5-7.5s-3.357-7.5-7.5-7.5h-51.532c-4.143 0-7.5 3.358-7.5 7.5s3.358 7.5 7.5 7.5z"/><path d="m307.062 299.538c-6.191-2.097-12.843-1.65-18.729 1.258-5.892 2.911-10.289 7.93-12.38 14.123l-42.746 126.032c-2.097 6.191-1.65 12.843 1.259 18.729 2.911 5.892 7.93 10.289 14.125 12.381 2.57.871 5.219 1.303 7.859 1.303 3.719 0 7.423-.857 10.864-2.555 5.89-2.905 10.288-7.913 12.385-14.1l42.749-126.039c4.322-12.803-2.575-26.766-15.386-31.132zm1.177 26.322-42.745 126.029c0 .001-.001.002-.001.003-.81 2.391-2.52 4.331-4.813 5.462-2.296 1.132-4.879 1.311-7.283.496-2.402-.811-4.35-2.521-5.483-4.816-1.133-2.293-1.311-4.876-.5-7.269l42.749-126.039c.811-2.402 2.521-4.349 4.815-5.483 1.348-.666 2.795-1.001 4.243-1.001 1.016 0 2.033.165 3.016.498 4.991 1.701 7.683 7.143 6.002 12.12z"/><path d="m208.13 307.081c-9.59-9.548-25.164-9.542-34.719.012l-54.707 54.709c-13.239 13.24-13.239 34.783 0 48.023l54.707 54.709c4.778 4.778 11.061 7.168 17.35 7.168 6.287 0 12.581-2.389 17.381-7.168 9.554-9.554 9.559-25.129-.002-34.731l-44.016-43.991 44.018-44.018c9.566-9.568 9.566-25.135-.012-34.713zm-10.596 24.106-49.322 49.323c-1.406 1.407-2.196 3.315-2.196 5.304 0 1.99.791 3.897 2.198 5.304l49.31 49.282c3.725 3.741 3.729 9.81.022 13.516-3.742 3.726-9.811 3.729-13.527.012l-54.707-54.709c-7.392-7.392-7.392-19.419 0-26.811l54.707-54.709c1.858-1.859 4.304-2.787 6.751-2.787 2.448 0 4.899.93 6.765 2.787 3.718 3.718 3.718 9.769-.001 13.488z"/><path d="m391.528 385.812-44.027 44.004c-9.55 9.589-9.544 25.164.011 34.718 4.778 4.779 11.061 7.168 17.351 7.168 6.286 0 12.58-2.389 17.379-7.168l54.714-54.716c13.2-13.236 13.2-34.773-.007-48.016l-54.719-54.72c-9.592-9.55-25.166-9.542-34.717.011-4.625 4.625-7.173 10.787-7.173 17.351s2.548 12.726 7.172 17.351zm-33.409-68.113c1.858-1.859 4.304-2.787 6.751-2.787 2.448 0 4.899.93 6.764 2.787l54.7 54.702c7.376 7.396 7.376 19.429.007 26.817l-54.695 54.698c-3.74 3.725-9.809 3.729-13.527.011s-3.714-9.787-.001-13.515l49.321-49.294c1.407-1.406 2.198-3.314 2.198-5.304 0-1.989-.79-3.897-2.196-5.304l-49.322-49.323c-1.791-1.792-2.778-4.187-2.778-6.744-.001-2.558.986-4.952 2.778-6.744z"/><path d="m425.749 218.025-.086.085c-2.946 2.912-2.974 7.661-.062 10.606 1.468 1.484 3.4 2.227 5.334 2.227 1.905 0 3.812-.721 5.272-2.167l.086-.085c2.946-2.912 2.974-7.661.062-10.606-2.914-2.945-7.663-2.972-10.606-.06z"/><path d="m381.923 218.056-.085.085c-2.929 2.929-2.929 7.678 0 10.606 1.465 1.464 3.385 2.197 5.304 2.197s3.839-.732 5.304-2.197l.085-.085c2.929-2.929 2.929-7.678 0-10.606-2.93-2.929-7.678-2.929-10.608 0z"/><path d="m343.6 218.056-.085.085c-2.929 2.929-2.929 7.678 0 10.606 1.465 1.464 3.385 2.197 5.304 2.197s3.839-.732 5.304-2.197l.085-.085c2.929-2.929 2.929-7.678 0-10.606-2.931-2.929-7.679-2.929-10.608 0z"/><path d="m459.905 178.952h-18.521v-153.792c0-13.873-11.274-25.16-25.131-25.16h-364.158c-13.873 0-25.159 11.287-25.159 25.16v282.7c0 13.874 11.286 25.16 25.159 25.16h18.493v153.82c0 13.873 11.286 25.16 25.159 25.16h364.158c13.873 0 25.159-11.287 25.159-25.16v-282.728c0-13.874-11.286-25.16-25.159-25.16zm-417.969-153.792c0-5.602 4.558-10.16 10.159-10.16h77.251l34.02 58.871h-121.43zm28.652 178.952v113.908h-18.493c-5.602 0-10.159-4.558-10.159-10.16v-218.989h209.231c4.143 0 7.5-3.358 7.5-7.5s-3.357-7.5-7.5-7.5h-70.476l-34.02-58.871h269.582c5.586 0 10.131 4.558 10.131 10.16v48.711h-140.578c-4.143 0-7.5 3.358-7.5 7.5s3.357 7.5 7.5 7.5h140.578v90.081h-330.637c-13.873 0-25.159 11.286-25.159 25.16zm102.411-10.16 34.046 58.899h-121.457v-48.739c0-5.603 4.558-10.16 10.159-10.16zm297.065 58.899h-140.606c-4.143 0-7.5 3.358-7.5 7.5s3.357 7.5 7.5 7.5h140.606v218.989c0 5.507-4.652 10.16-10.159 10.16h-364.158c-5.602 0-10.159-4.558-10.159-10.16v-218.989h209.231c4.143 0 7.5-3.358 7.5-7.5s-3.357-7.5-7.5-7.5h-70.449l-34.046-58.899h269.581c5.602 0 10.159 4.558 10.159 10.16z"/></g></g></svg>